<?xml version="1.0" encoding="UTF-8"?> <!-- Generator: Adobe Illustrator 23.1.1, SVG Export Plug-In . SVG Version: 6.00 Build 0) --> <svg xmlns="http://www.w3.org/2000/svg" xmlns:xlink="http://www.w3.org/1999/xlink" id="Layer_1" x="0px" y="0px" viewBox="0 0 86 82" style="enable-background:new 0 0 86 82;" xml:space="preserve"> <style type="text/css"> .st0{opacity:0.2;fill:#38C411;enable-background:new ;} .st1{fill:#38C411;} .st2{fill:#F8F8F8;} .st3{font-family:'ProximaNova-Semibold';} .st4{font-size:40px;} </style> <g> <path class="st0" d="M6.2,51.3C0.6,36.6,0.9,19.2,9.4,9.6c8.5-9.6,25.2-11.4,39-7.8C62.2,5.4,73.2,14.4,78.7,27 c5.6,12.7,5.7,29-2.5,40.1c-8.2,11.1-24.8,17.1-38.8,14C23.4,78,11.8,66,6.2,51.3L6.2,51.3z"></path> <path class="st1" d="M41,78.1C25.3,78.4,9.1,72.1,3,60.9c-6.1-11.3-2.1-27.6,6-39.3C17.1,9.8,29.2,2.6,43,1.6 c13.8-0.9,29.2,4.5,36.8,16c7.6,11.5,7.6,29.1-0.1,41.3C72,71.1,56.8,77.9,41,78.1z"></path> <text transform="matrix(1 0 0 1 20.858 54)" class="st2 st3 st4">01</text> </g> </svg> 