<?xml version="1.0" encoding="UTF-8"?> <!-- Generator: Adobe Illustrator 23.1.1, SVG Export Plug-In . SVG Version: 6.00 Build 0) --> <svg xmlns="http://www.w3.org/2000/svg" xmlns:xlink="http://www.w3.org/1999/xlink" id="Layer_1" x="0px" y="0px" viewBox="0 0 86 82" style="enable-background:new 0 0 86 82;" xml:space="preserve"> <style type="text/css"> .st0{opacity:0.2;fill:#4745F7;enable-background:new ;} .st1{fill:#4745F7;} .st2{fill:#F8F8F8;} .st3{font-family:'ProximaNova-Semibold';} .st4{font-size:40px;} </style> <path class="st0" d="M6.7,51.3C1.1,36.5,1.4,19.2,9.9,9.6c8.5-9.6,25.2-11.4,39-7.8C62.7,5.4,73.6,14.3,79.2,27 c5.6,12.7,5.7,29-2.5,40.1c-8.2,11.1-24.8,17.1-38.8,14C23.9,78,12.3,66,6.7,51.3L6.7,51.3z"></path> <path class="st1" d="M41.3,78.1c-15.7,0.2-31.9-6-38.1-17.3c-6.1-11.3-2.1-27.6,6-39.3c8.1-11.7,20.3-19,34.1-19.9 c13.8-0.9,29.2,4.5,36.8,16c7.6,11.5,7.6,29.1-0.1,41.3C72.3,71.1,57,77.9,41.3,78.1z"></path> <g> <text transform="matrix(1 0 0 1 17.758 54)" class="st2 st3 st4">03</text> </g> </svg> 